<?xml version="1.0" standalone="no"?>
<!DOCTYPE svg PUBLIC "-//W3C//DTD SVG 20010904//EN"
 "http://www.w3.org/TR/2001/REC-SVG-20010904/DTD/svg10.dtd">
<svg version="1.0" xmlns="http://www.w3.org/2000/svg"
 width="500.000000pt" height="500.000000pt" viewBox="0 0 500.000000 500.000000"
 preserveAspectRatio="xMidYMid meet">
<metadata>
Created by potrace 1.11, written by Peter Selinger 2001-2013
</metadata>
<g transform="translate(0.000000,500.000000) scale(0.100000,-0.100000)"
fill="#000000" stroke="none">
<path d="M1058 4574 c-2 -10 -1 -219 2 -465 5 -433 6 -449 25 -463 11 -9 26
-16 34 -16 26 0 79 -50 97 -90 14 -31 29 -45 71 -65 106 -52 148 -163 95 -247
l-20 -31 -6 31 c-9 41 -34 60 -88 70 -96 18 -189 -33 -204 -113 -14 -74 27
-130 203 -279 125 -105 157 -155 147 -228 -8 -65 -51 -132 -131 -205 -98 -90
-155 -178 -179 -280 -13 -56 -12 -258 2 -333 33 -176 104 -337 197 -451 58
-70 322 -315 514 -477 65 -54 153 -136 195 -180 81 -86 204 -245 232 -299 9
-17 20 -34 24 -37 11 -7 12 2923 1 2978 -13 66 -17 79 -34 126 -37 105 -148
255 -283 384 -108 103 -208 178 -681 516 -57 40 -127 95 -156 122 -42 38 -54
45 -57 32z"/>
<path d="M3788 4542 c-54 -50 -193 -155 -423 -322 -373 -270 -569 -465 -669
-667 -75 -148 -70 -30 -70 -1666 -1 -808 2 -1471 5 -1473 3 -2 36 38 71 89 36
50 74 102 84 113 11 12 39 46 64 75 25 29 52 61 60 69 8 9 58 63 110 120 52
58 106 117 120 131 63 66 296 327 374 419 120 142 263 372 301 485 23 69 29
115 28 225 -1 176 -39 263 -173 395 -91 89 -156 143 -250 207 l-25 17 25 -6
c107 -23 182 -18 254 16 100 49 170 158 173 271 0 36 -5 97 -13 135 -21 109
-18 136 23 212 71 133 76 145 76 186 0 31 -15 71 -56 152 -59 116 -80 182 -71
231 2 16 21 61 40 101 19 39 37 80 39 92 3 12 7 31 10 44 7 31 7 154 0 202 -7
45 -46 195 -50 195 -2 0 -27 -22 -57 -48z"/>
</g>
</svg>
